<?xml version="1.0" encoding="utf-8"?>
<!-- Generator: Adobe Illustrator 26.5.0, SVG Export Plug-In . SVG Version: 6.00 Build 0)  -->
<svg version="1.1" id="Слой_1" xmlns="http://www.w3.org/2000/svg" xmlns:xlink="http://www.w3.org/1999/xlink" x="0px" y="0px"
	 viewBox="0 0 30 30" style="enable-background:new 0 0 30 30;" xml:space="preserve" fill="currentColor">
<path id="weapon_x5F_decoy" class="st0" d="M9.04,13.13l1.8,1.01l-0.75,1.28l-1.76-1.01v2.02H6.89v-2.07l-1.85,1.06l-0.7-1.28
	l1.8-1.01l-1.8-1.06l0.75-1.27l1.8,1.05V9.75h1.45v2.07l1.76-1.01l0.7,1.27L9.04,13.13z M10.87,4.3l2.15-1.25l-0.86-1.49l-2.07,1.21
	V0.36H8.33v2.5L6.14,1.57L5.28,3.05L7.47,4.3L5.28,5.55l0.86,1.49l2.19-1.25v2.5h1.76V5.87l2.07,1.17l0.86-1.49L10.87,4.3z
	 M16.49,5.31l-1.32,1.15h-0.62c-0.41,0-0.62,0.21-0.62,0.62v2.82l1.01,0.97v2.07h0.49v2.12h-0.49v2.2h0.49v2.12h-0.49v2.2h0.49v2.12
	h-0.49v2.03l-1.01,1.81v1.5c0,0.41,0.2,0.62,0.62,0.62h7.85c0.41,0,0.62-0.21,0.62-0.62v-1.5l-1.06-1.81v-2.03h-0.44v-2.12h0.44
	v-2.2h-0.44v-2.12h0.44v-2.2h-0.44v-2.12h0.44v-2.07l1.06-0.97V7.82l1.76,1.01v12.39l-0.62,0.31c-0.47,0.27-0.82,0.5-1.06,0.71
	c-0.26,0.23-0.32,0.48-0.17,0.75l0.66,0.13l2.07-1.01V8.22l-4.1-6.57h-4.85l-0.88,0.13c-0.26,0.12-0.4,0.37-0.4,0.75
	c0,0.59,0.35,0.93,1.06,1.01V5.31"/>
</svg>
