<?xml version="1.0" encoding="utf-8"?>
<!-- Generator: Adobe Illustrator 26.5.0, SVG Export Plug-In . SVG Version: 6.00 Build 0)  -->
<svg version="1.1" id="Слой_1" xmlns="http://www.w3.org/2000/svg" xmlns:xlink="http://www.w3.org/1999/xlink" x="0px" y="0px"
	 viewBox="0 0 30 30" style="enable-background:new 0 0 30 30;" xml:space="preserve" fill="currentColor">
<path id="weapon_x5F_flashbang" class="st0" d="M11.69,4.66V2.9c-0.71-0.09-1.06-0.43-1.06-1.01c0-0.38,0.13-0.63,0.4-0.75L11.91,1
	h4.85l4.1,6.57v13.89l-2.07,1.01l-0.66-0.13c-0.15-0.27-0.09-0.52,0.17-0.75c0.24-0.21,0.59-0.44,1.06-0.71l0.62-0.31V8.19
	l-1.76-1.01v2.07l-1.06,0.97v2.07h-0.44v2.12h0.44v2.2h-0.44v2.12h0.44v2.2h-0.44v2.12h0.44v2.03l1.06,1.81v1.5
	c0,0.41-0.21,0.62-0.62,0.62H9.75c-0.41,0-0.62-0.21-0.62-0.62v-1.5l1.01-1.81v-2.03h0.49v-2.12h-0.49v-2.2h0.49v-2.12h-0.49v-2.2
	h0.49v-2.12h-0.49v-2.07L9.13,9.25V6.42c0-0.41,0.2-0.62,0.62-0.62h0.62L11.69,4.66L11.69,4.66z"/>
</svg>
