<?xml version="1.0" encoding="utf-8"?>
<!-- Generator: Adobe Illustrator 26.5.0, SVG Export Plug-In . SVG Version: 6.00 Build 0)  -->
<svg version="1.1" id="Слой_1" xmlns="http://www.w3.org/2000/svg" xmlns:xlink="http://www.w3.org/1999/xlink" x="0px" y="0px"
	 viewBox="0 0 30 30" style="enable-background:new 0 0 30 30;" xml:space="preserve" fill="currentColor">
	<path id="weapon_x5F_incgrenade" class="st0" d="M18.12,1.78c0.19,0.53,0.41,1.06,0.62,1.6c0.07,0.19,0.21,0.58,0.39,0.76
	c0.19,0.18,0.1,0.72,0.29,0.9c0.38,0.38,0.23,1.18,0.62,1.56c0.17,0.17,0.22,0.61,0.35,0.84c0.04,0.07,0.29,0.3,0.29,0.43
	c0,0.31,0,0.49,0.12,0.73c0.17,0.36,0.39,0.52,0.49,0.99c0.14,0.64,0.08,1.48,0.08,2.2c0,1.43,0,2.85,0,4.28c0,2.84,0,5.68,0,8.52
	c0,0.56,0.06,0.99-0.33,1.26c-0.1,0.07-0.11,0.08-0.33,0.08c-0.33,0-0.29,0.01-0.29-0.33c0-0.37,0.25-0.43,0.25-0.64
	c0-1.43,0-2.85,0-4.28c0-2.87,0-5.73,0-8.6c0-0.61,0.21-1.68,0-2.24c-0.06-0.16-0.4-0.52-0.49-0.66c-0.17-0.27-0.29-0.59-0.49-0.82
	c-0.2-0.23-0.35-0.59-0.62-0.78c0,3.78,0,7.56,0,11.34c0,2.31,0,4.62,0,6.93c0,0.55,0,1.11,0,1.66c0,0.21-0.07,0.11-0.25,0.24
	c-0.59,0.44-1.48,0.7-2.2,0.85c-2.19,0.46-4.22,0.64-6.37-0.2C9.92,28.28,8.7,27.9,8.7,27.49c0-0.58,0-1.16,0-1.73
	c0-4.9,0-9.79,0-14.69c0-1.17,0.02-2.35,0-3.52c-0.54-1.07,1.42-0.99,1.93-1.08c0.25-0.04,1.07-0.06,1.07-0.31
	c0-0.43,0.25-0.66,0.25-1.05c0-0.51,0-1.03,0-1.54c0-0.07-0.94-0.06-1.03-0.06c-0.17,0,0.18-1.57,0.66-1.73c0.23-0.08,0.61,0,0.85,0
	c0.66,0,1.32,0,1.98,0c0.27,0,2.3-0.21,2.23,0.25c0.17-0.34,0.48-0.91,0.78-1.03c0.05,0.03,0.36-0.01,0.41,0.04
	c0.08,0.08-0.05,0.36,0,0.45C17.92,1.67,18.16,1.49,18.12,1.78 M12.74,10.09c-1.67,1.46-2.44,3.85-2.38,6.02
	c0.06,2.04,0.77,4.5,3.21,4.64c-1.78-1.1-1.62-3.84-0.04-5.02c-0.32,0.91,0.16,1.78,0.78,2.43c0.31,0.33,1.87,1.96,1.16,2.43
	c1.1,0.43,2.09-1.63,2.22-2.38c0.2-1.29-0.14-2.54-0.87-3.61c-1.2-1.75-3.43-4.28-1.73-6.39C14.3,8.83,13.52,9.46,12.74,10.09
	 M18.66,22.06c0-0.04,0-0.08,0-0.12c-0.8,0.08-1.6,0.17-2.41,0.26c-0.7,0.07-1.55,0.31-2.25,0.24c-1.62-0.16-3.23-0.33-4.85-0.49
	c0,0.34,0,0.68,0,1.03c0,0.3-0.1,0.48,0.23,0.52c1.53,0.19,3.07,0.38,4.6,0.58c0.41,0.05,0.88-0.09,1.29-0.14
	c0.91-0.12,1.82-0.23,2.73-0.34c0.64-0.08,0.65,0,0.65-0.66C18.66,22.64,18.66,22.35,18.66,22.06"/>
</svg>
