<?xml version="1.0" encoding="utf-8"?>
<!-- Generator: Adobe Illustrator 26.5.0, SVG Export Plug-In . SVG Version: 6.00 Build 0)  -->
<svg version="1.1" id="Слой_1" xmlns="http://www.w3.org/2000/svg" xmlns:xlink="http://www.w3.org/1999/xlink" x="0px" y="0px"
	 viewBox="0 0 30 30" style="enable-background:new 0 0 30 30;" xml:space="preserve" fill="currentColor">
<path id="weapon_x5F_molotov" class="st0" d="M24.41,7.28c-0.08,0.19-0.01,0.42,0.21,0.7c0.19,0.27,0.14,0.64-0.16,1.1l-1.31,1.56
	c-0.31,0.35-0.75,0.57-1.3,0.68l0.38-0.61l0.19-0.04l1.42-1.94l-0.27-0.71l-0.98-0.94c-0.39-0.27-0.73-0.45-1.06-0.57l-0.86-0.08
	L19.3,8.26l-0.36,0.55h0.15l-0.91,1.1l-0.52-1.04c-0.22-0.74-0.26-1.34-0.12-1.8l0.49-0.9c0.19-0.38,0.19-0.9,0-1.56l0.45,0.16
	c0.35,0.19,0.61,0.49,0.78,0.9l0.12,1.1l0.04,0.45l0.61-1.35c0.03-0.27-0.15-0.7-0.53-1.27l-0.9-1.15c-0.16-0.25-0.23-0.82-0.2-1.72
	C18.42,0.83,18.56,0.25,18.8,0c0.05,0.57,0.3,1.08,0.73,1.51c0.22,0.22,0.81,0.46,1.76,0.74c0.38,0.11,0.61,0.34,0.69,0.7l0.33,0.86
	l0.45,0.61c0.19,0.25,0.34,0.31,0.45,0.2c0.11-0.11,0-0.42-0.32-0.94c-0.36-0.54-0.3-1.15,0.16-1.8c0.05,0.27,0.38,0.68,0.98,1.23
	c0.6,0.57,0.97,1.13,1.11,1.68l0.04,0.82l-0.33,0.98L24.41,7.28z M22.2,10.35l1.23-1.68l-0.21-0.53l-0.86-0.78
	c-0.36-0.24-0.68-0.42-0.98-0.53l-0.57-0.04l-1.23,1.68h0.04v0.25l-3.23,3.93l-0.74,0.49l-1.23,0.57c-1.23,0.57-2.04,1.16-2.46,1.76
	L4.85,25.49c-0.11,0.27,0.04,0.74,0.45,1.39c0.46,0.71,1.08,1.34,1.84,1.88c0.77,0.55,1.51,0.91,2.37,1.14
	c0.87,0.23,1.47-0.04,1.47-0.04l7.12-9.98c0.41-0.6,0.7-1.57,0.86-2.9c0.14-1.36,0.26-2.11,0.37-2.25l2.66-4.34L22.2,10.35z"/>
</svg>
