<?xml version="1.0" encoding="utf-8"?>
<!-- Generator: Adobe Illustrator 26.5.0, SVG Export Plug-In . SVG Version: 6.00 Build 0)  -->
<svg version="1.1" id="Слой_1" xmlns="http://www.w3.org/2000/svg" xmlns:xlink="http://www.w3.org/1999/xlink" x="0px" y="0px"
	 viewBox="0 0 30 30" style="enable-background:new 0 0 30 30;" xml:space="preserve" fill="currentColor">
<path id="weapon_x5F_smokegrenade" class="st0" d="M21.38,16.08c0-1.43,0-2.85,0-4.28c0-0.72,0.06-1.56-0.08-2.2
	c-0.11-0.46-0.32-0.63-0.49-0.99c-0.12-0.24-0.12-0.41-0.12-0.73c0-0.12-0.25-0.36-0.29-0.43c-0.13-0.24-0.18-0.67-0.35-0.84
	c-0.38-0.38-0.23-1.19-0.62-1.56c-0.19-0.18-0.1-0.72-0.29-0.9c-0.18-0.18-0.32-0.57-0.39-0.76c-0.2-0.54-0.43-1.08-0.62-1.6
	c0.03-0.29-0.2-0.11-0.29-0.29c-0.05-0.1,0.08-0.38,0-0.45C17.79,0.99,17.47,1.03,17.42,1c-0.3,0.11-0.61,0.68-0.78,1.03
	c0.07-0.45-1.95-0.25-2.23-0.25c-0.66,0-1.32,0-1.98,0c-0.24,0-0.62-0.08-0.85,0c-0.47,0.16-0.83,1.73-0.66,1.73
	c0.08,0,1.03-0.01,1.03,0.06c0,0.51,0,1.03,0,1.54c0,0.39-0.25,0.62-0.25,1.05c0,0.25-0.82,0.26-1.07,0.31
	c-0.51,0.09-2.47,0-1.93,1.08c0.02,1.17,0,2.35,0,3.52c0,4.9,0,9.79,0,14.69c0,0.58,0,1.16,0,1.73c0,0.41,1.22,0.8,1.55,0.93
	c2.15,0.84,4.18,0.65,6.37,0.2c0.73-0.15,1.61-0.41,2.2-0.85c0.18-0.14,0.25-0.03,0.25-0.24c0-0.55,0-1.11,0-1.66
	c0-2.31,0-4.62,0-6.93c0-3.78,0-7.56,0-11.34c0.27,0.19,0.42,0.55,0.62,0.78c0.2,0.23,0.32,0.56,0.5,0.82
	c0.09,0.14,0.44,0.5,0.49,0.66c0.21,0.57,0,1.63,0,2.24c0,2.87,0,5.73,0,8.6c0,1.42,0,2.85,0,4.27c0,0.21-0.25,0.27-0.25,0.64
	c0,0.34-0.04,0.33,0.29,0.33c0.22,0,0.23-0.01,0.33-0.08c0.39-0.27,0.33-0.69,0.33-1.25C21.38,21.75,21.38,18.92,21.38,16.08z
	 M18.66,22.06c0,0.29,0,0.58,0,0.86c0,0.66-0.01,0.58-0.65,0.66c-0.91,0.11-1.82,0.23-2.73,0.34c-0.41,0.05-0.88,0.19-1.29,0.14
	c-1.53-0.19-3.07-0.39-4.6-0.58c-0.33-0.04-0.23-0.22-0.23-0.52c0-0.34,0-0.69,0-1.03c1.61,0.16,3.23,0.33,4.85,0.49
	c0.7,0.07,1.55-0.16,2.25-0.24c0.8-0.08,1.6-0.17,2.41-0.25C18.66,21.98,18.66,22.02,18.66,22.06z M18.66,10.14
	c0,0.29,0,0.58,0,0.86c0,0.66-0.01,0.58-0.65,0.66c-0.91,0.11-1.82,0.23-2.73,0.34c-0.41,0.05-0.88,0.19-1.29,0.14
	c-1.53-0.19-3.07-0.39-4.6-0.58c-0.33-0.04-0.23-0.22-0.23-0.52c0-0.34,0-0.69,0-1.03c1.61,0.16,3.23,0.33,4.85,0.49
	c0.7,0.07,1.55-0.16,2.25-0.24c0.8-0.08,1.6-0.17,2.41-0.25C18.66,10.06,18.66,10.1,18.66,10.14z"/>
</svg>
